<svg width="1173" height="93" viewBox="0 0 1173 93" fill="none" xmlns="http://www.w3.org/2000/svg">
<g clip-path="url(#clip0_0_535)">
<path d="M62.7676 63.45V37.339H73.1213C74.8862 37.339 76.3307 37.6956 77.455 38.4089C78.5913 39.11 79.4314 40.0106 79.9754 41.1106C80.5314 42.2107 80.8095 43.347 80.8095 44.5195C80.8095 45.9581 80.465 47.179 79.7759 48.1823C79.099 49.1857 78.1742 49.8626 77.0016 50.2132V49.3065C78.6457 49.6813 79.8908 50.461 80.7369 51.6456C81.5952 52.8303 82.0244 54.1782 82.0244 55.6892C82.0244 57.2365 81.7282 58.5904 81.1359 59.7509C80.5435 60.9114 79.6611 61.818 78.4885 62.4708C77.328 63.1236 75.8895 63.45 74.173 63.45H62.7676ZM67.1919 59.3339H73.629C74.3905 59.3339 75.0735 59.1828 75.678 58.8805C76.2824 58.5662 76.7538 58.1311 77.0923 57.575C77.4429 57.0068 77.6181 56.3359 77.6181 55.5623C77.6181 54.8612 77.467 54.2326 77.1648 53.6765C76.8626 53.1204 76.4214 52.6792 75.8412 52.3528C75.2609 52.0143 74.5658 51.8451 73.7559 51.8451H67.1919V59.3339ZM67.1919 47.7653H73.0669C73.6955 47.7653 74.2576 47.6444 74.7532 47.4026C75.2488 47.1609 75.6417 46.8042 75.9318 46.3328C76.2219 45.8614 76.367 45.2811 76.367 44.5921C76.367 43.6854 76.0769 42.9299 75.4966 42.3255C74.9164 41.7211 74.1065 41.4189 73.0669 41.4189H67.1919V47.7653ZM94.295 63.9939C92.3367 63.9939 90.6262 63.5527 89.1635 62.6703C87.7008 61.7878 86.5645 60.5729 85.7546 59.0256C84.9567 57.4662 84.5578 55.6771 84.5578 53.6584C84.5578 51.6033 84.9688 49.8022 85.7908 48.2549C86.6128 46.7075 87.7552 45.4987 89.2179 44.6283C90.6806 43.758 92.373 43.3228 94.295 43.3228C96.2654 43.3228 97.982 43.764 99.4447 44.6465C100.907 45.5289 102.044 46.7498 102.854 48.3092C103.664 49.8566 104.068 51.6396 104.068 53.6584C104.068 55.6892 103.657 57.4843 102.835 59.0437C102.026 60.591 100.889 61.8059 99.4265 62.6884C97.9638 63.5587 96.2533 63.9939 94.295 63.9939ZM94.295 59.896C96.0357 59.896 97.3292 59.3157 98.1754 58.1552C99.0216 56.9948 99.4447 55.4958 99.4447 53.6584C99.4447 51.7605 99.0155 50.2494 98.1573 49.1252C97.299 47.9889 96.0116 47.4208 94.295 47.4208C93.1224 47.4208 92.1554 47.6867 91.3938 48.2186C90.6443 48.7384 90.0883 49.4697 89.7256 50.4126C89.363 51.3434 89.1816 52.4253 89.1816 53.6584C89.1816 55.5562 89.6108 57.0733 90.469 58.2096C91.3394 59.3339 92.6147 59.896 94.295 59.896ZM108.426 63.45V36.7951H112.796V63.45H108.426ZM126.079 63.9939C124.278 63.9939 122.706 63.5406 121.365 62.634C120.023 61.7274 118.983 60.4943 118.246 58.9349C117.508 57.3755 117.14 55.6167 117.14 53.6584C117.14 51.6759 117.508 49.911 118.246 48.3636C118.995 46.8042 120.053 45.5773 121.419 44.6827C122.785 43.7761 124.393 43.3228 126.242 43.3228C128.104 43.3228 129.663 43.7761 130.921 44.6827C132.19 45.5773 133.151 46.8042 133.804 48.3636C134.456 49.923 134.783 51.688 134.783 53.6584C134.783 55.6046 134.456 57.3634 133.804 58.9349C133.151 60.4943 132.178 61.7274 130.884 62.634C129.591 63.5406 127.989 63.9939 126.079 63.9939ZM126.75 60.0773C127.923 60.0773 128.866 59.8113 129.579 59.2795C130.304 58.7355 130.83 57.98 131.156 57.0129C131.495 56.0458 131.664 54.9276 131.664 53.6584C131.664 52.377 131.495 51.2588 131.156 50.3038C130.83 49.3368 130.316 48.5873 129.615 48.0554C128.914 47.5114 128.007 47.2394 126.895 47.2394C125.723 47.2394 124.755 47.5295 123.994 48.1098C123.232 48.6779 122.67 49.4516 122.308 50.4308C121.945 51.3978 121.764 52.4737 121.764 53.6584C121.764 54.8551 121.939 55.9431 122.289 56.9222C122.652 57.8893 123.202 58.6569 123.94 59.2251C124.677 59.7932 125.614 60.0773 126.75 60.0773ZM131.664 63.45V49.7055H131.12V37.339H135.526V63.45H131.664ZM149.259 63.9939C147.301 63.9939 145.591 63.5527 144.128 62.6703C142.665 61.7878 141.529 60.5729 140.719 59.0256C139.921 57.4662 139.522 55.6771 139.522 53.6584C139.522 51.6033 139.933 49.8022 140.755 48.2549C141.577 46.7075 142.72 45.4987 144.182 44.6283C145.645 43.758 147.337 43.3228 149.259 43.3228C151.23 43.3228 152.946 43.764 154.409 44.6465C155.872 45.5289 157.008 46.7498 157.818 48.3092C158.628 49.8566 159.033 51.6396 159.033 53.6584C159.033 55.6892 158.622 57.4843 157.8 59.0437C156.99 60.591 155.854 61.8059 154.391 62.6884C152.928 63.5587 151.218 63.9939 149.259 63.9939ZM149.259 59.896C151 59.896 152.294 59.3157 153.14 58.1552C153.986 56.9948 154.409 55.4958 154.409 53.6584C154.409 51.7605 153.98 50.2494 153.122 49.1252C152.263 47.9889 150.976 47.4208 149.259 47.4208C148.087 47.4208 147.12 47.6867 146.358 48.2186C145.609 48.7384 145.053 49.4697 144.69 50.4126C144.327 51.3434 144.146 52.4253 144.146 53.6584C144.146 55.5562 144.575 57.0733 145.433 58.2096C146.304 59.3339 147.579 59.896 149.259 59.896Z" fill="white"/>
<path d="M27 49.45H41.3176C46.201 49.45 50.1597 53.4087 50.1597 58.2921C50.1597 63.1754 46.201 67.1342 41.3176 67.1342H27V49.45Z" fill="white"/>
<path d="M27 33.9763H36.4795C40.1421 33.9763 43.1111 36.9454 43.1111 40.6079C43.1111 44.2704 40.1421 47.2395 36.4795 47.2395H27V33.9763Z" fill="white"/>
<g clip-path="url(#clip1_0_535)">
<g clip-path="url(#clip2_0_535)">
<path d="M237.34 35.6927C237.302 35.6206 237.279 35.5418 237.272 35.4608C237.265 35.3799 237.275 35.2983 237.299 35.2209C237.324 35.1434 237.363 35.0716 237.416 35.0095C237.468 34.9473 237.532 34.8961 237.604 34.8588C239.819 33.7328 242.278 33.1755 244.762 33.2373C247.245 33.2991 249.674 33.9779 251.829 35.2125C251.9 35.2532 251.962 35.3074 252.012 35.3722C252.061 35.4369 252.098 35.5108 252.119 35.5896C252.14 35.6685 252.145 35.7506 252.134 35.8315C252.123 35.9123 252.096 35.9901 252.054 36.0605L244.933 48.2818C244.879 48.3754 244.801 48.453 244.707 48.5069C244.613 48.5608 244.507 48.5891 244.399 48.589H244.383C244.272 48.586 244.164 48.5534 244.07 48.4946C243.976 48.4358 243.9 48.3529 243.848 48.2545L237.34 35.6927ZM244.017 51.8483V51.8471L237.508 39.2853C237.432 39.1399 237.302 39.0302 237.146 38.9804C236.99 38.9305 236.82 38.9444 236.674 39.0191C234.94 39.9086 233.397 41.132 232.137 42.6189C230.876 44.1059 229.921 45.8272 229.327 47.6841C228.734 49.541 228.512 51.4969 228.676 53.4395C228.84 55.3821 229.386 57.2732 230.283 59.0043C231.18 60.7353 232.409 62.2722 233.902 63.5268C235.394 64.7814 237.119 65.729 238.978 66.3151C240.838 66.9012 242.795 67.1143 244.736 66.9423C246.678 66.7702 248.567 66.2164 250.294 65.3125C250.44 65.2365 250.549 65.1062 250.598 64.9501C250.648 64.7939 250.633 64.6246 250.558 64.479L244.017 51.8483ZM251.647 63.7218L251.696 63.8209C251.771 63.967 251.9 64.0781 252.056 64.1306C252.119 64.1517 252.187 64.1601 252.254 64.1553C252.352 64.1526 252.448 64.1316 252.539 64.0934C252.764 63.9817 252.983 63.8576 253.195 63.7218C253.825 63.3563 254.426 62.9422 254.991 62.4832H251.003L251.647 63.7218ZM250.359 61.2445H256.341C256.726 60.858 257.082 60.4441 257.407 60.0059H249.715L250.359 61.2445ZM249.083 58.7673H258.286C258.54 58.3696 258.767 57.9558 258.967 57.5286H248.439L249.083 58.7673ZM247.795 56.29H259.512C259.677 55.8856 259.817 55.472 259.933 55.0513H247.151L247.795 56.29ZM246.506 53.8127H260.243C260.317 53.4039 260.379 52.9952 260.416 52.574H245.875L246.506 53.8127ZM253.146 38.1563C253.076 38.113 252.998 38.0851 252.917 38.0745C252.836 38.0638 252.753 38.0706 252.675 38.0943C252.595 38.1127 252.519 38.1474 252.453 38.1965C252.387 38.2455 252.332 38.3077 252.291 38.3792L251.957 38.949H254.347C253.961 38.6635 253.56 38.3988 253.146 38.1563ZM255.846 40.1876H251.238L250.52 41.4263H257.023C256.656 40.9897 256.263 40.576 255.846 40.1876ZM257.952 42.6649H249.789L249.07 43.9036H258.707C258.484 43.474 258.231 43.0602 257.952 42.6649ZM259.302 45.1422H248.352L247.634 46.3808H259.785C259.647 45.9591 259.486 45.5455 259.302 45.1422ZM260.132 47.6195H246.903L246.184 48.8581H260.354C260.305 48.4411 260.231 48.0275 260.132 47.6195ZM260.478 50.0968H245.466L245.169 50.6046C245.115 50.694 245.086 50.796 245.084 50.9002C245.081 51.0045 245.106 51.1076 245.156 51.1992L245.231 51.3354H260.503C260.516 51.2115 260.516 51.0753 260.516 50.9514C260.516 50.6665 260.503 50.3817 260.478 50.0968Z" fill="white"/>
<path d="M237.055 38.4069C236.828 37.9767 236.294 37.8099 235.877 38.0607C232.577 40.046 230.112 43.1819 228.968 46.8808C227.738 50.8609 228.139 55.1668 230.083 58.8512C232.028 62.5356 235.356 65.2966 239.336 66.527C243.035 67.6704 247.015 67.4048 250.516 65.801C250.959 65.5984 251.122 65.0631 250.895 64.6329L243.975 51.5199L237.055 38.4069Z" fill="white"/>
</g>
<path d="M282.616 39.4869C284.337 39.4869 285.804 39.7631 287.015 40.3157C288.226 40.8683 289.151 41.6652 289.789 42.7066C290.426 43.748 290.745 45.0125 290.745 46.5002C290.745 47.9879 290.426 49.2524 289.789 50.2938C289.151 51.3351 288.226 52.1321 287.015 52.6847C285.804 53.2372 284.337 53.5135 282.616 53.5135H278.44V60.5269H272.957V39.4869H282.616ZM281.755 49.4012C282.903 49.4012 283.763 49.1674 284.337 48.6998C284.932 48.211 285.23 47.4778 285.23 46.5002C285.23 45.5226 284.932 44.8 284.337 44.3324C283.763 43.8436 282.903 43.5992 281.755 43.5992H278.44V49.4012H281.755ZM293.868 60.5269V44.5875H298.65L298.873 48.0304C299.277 46.8402 299.872 45.9157 300.658 45.2569C301.466 44.5981 302.486 44.2687 303.719 44.2687C304.122 44.2687 304.462 44.3006 304.739 44.3643C305.036 44.4281 305.27 44.5131 305.44 44.6193L304.898 49.0824C304.686 48.9974 304.409 48.9336 304.069 48.8911C303.75 48.8273 303.357 48.7955 302.89 48.7955C302.252 48.7955 301.657 48.9336 301.105 49.2099C300.552 49.4862 300.106 49.9006 299.766 50.4532C299.447 50.9845 299.287 51.6646 299.287 52.4934V60.5269H293.868ZM315.158 60.8456C313.394 60.8456 311.863 60.5162 310.567 59.8574C309.292 59.1986 308.304 58.2528 307.602 57.0202C306.901 55.7875 306.55 54.2999 306.55 52.5572C306.55 50.8145 306.901 49.3268 307.602 48.0941C308.304 46.8615 309.281 45.9157 310.535 45.2569C311.81 44.5981 313.266 44.2687 314.903 44.2687C316.581 44.2687 318.005 44.5981 319.174 45.2569C320.364 45.8945 321.268 46.7871 321.884 47.9347C322.5 49.0611 322.808 50.3575 322.808 51.8239C322.808 52.2065 322.798 52.589 322.777 52.9716C322.755 53.3541 322.723 53.6729 322.681 53.9279H310.057V51.027H320.29L317.708 52.0152C317.708 50.7401 317.474 49.7625 317.007 49.0824C316.56 48.4023 315.859 48.0623 314.903 48.0623C314.222 48.0623 313.638 48.2216 313.149 48.5404C312.682 48.8592 312.32 49.3587 312.065 50.0387C311.832 50.7188 311.715 51.5902 311.715 52.6528C311.715 53.6942 311.853 54.5443 312.129 55.2031C312.405 55.8407 312.799 56.3082 313.309 56.6058C313.819 56.882 314.435 57.0202 315.158 57.0202C315.965 57.0202 316.603 56.8608 317.07 56.542C317.559 56.2232 317.92 55.7769 318.154 55.2031L322.49 56.6376C322.192 57.5515 321.671 58.3272 320.928 58.9648C320.205 59.5811 319.334 60.0487 318.314 60.3675C317.315 60.6862 316.263 60.8456 315.158 60.8456ZM332.535 60.8456C330.941 60.8456 329.453 60.5906 328.072 60.0806C326.712 59.5492 325.585 58.7948 324.693 57.8172L327.243 54.8206C327.774 55.5006 328.476 56.0745 329.347 56.542C330.239 56.9883 331.228 57.2115 332.312 57.2115C332.97 57.2115 333.512 57.1158 333.937 56.9246C334.362 56.7333 334.575 56.4357 334.575 56.0319C334.575 55.7344 334.469 55.5006 334.256 55.3306C334.044 55.1393 333.619 54.9799 332.981 54.8524L330.75 54.4061C328.752 54.0023 327.328 53.4073 326.478 52.6209C325.649 51.8133 325.235 50.7613 325.235 49.4649C325.235 48.5936 325.5 47.7647 326.031 46.9784C326.563 46.1708 327.381 45.5226 328.486 45.0338C329.591 44.5237 331.005 44.2687 332.726 44.2687C334.341 44.2687 335.765 44.5025 336.998 44.97C338.23 45.4376 339.208 46.1176 339.931 47.0103L337.348 49.9431C336.838 49.3055 336.18 48.8061 335.372 48.4448C334.564 48.0835 333.757 47.9029 332.949 47.9029C332.439 47.9029 332.003 47.956 331.642 48.0623C331.302 48.1473 331.047 48.2748 330.877 48.4448C330.707 48.6148 330.622 48.8273 330.622 49.0824C330.622 49.3587 330.75 49.6031 331.005 49.8156C331.281 50.0069 331.78 50.1769 332.503 50.3256L335.404 50.8995C337.04 51.197 338.22 51.7389 338.942 52.5253C339.665 53.3116 340.026 54.2574 340.026 55.3625C340.026 56.4039 339.75 57.339 339.197 58.1678C338.645 58.9967 337.816 59.6555 336.711 60.1443C335.606 60.6119 334.214 60.8456 332.535 60.8456ZM349.501 39.5187V54.8524C349.501 55.6175 349.681 56.1701 350.043 56.5101C350.425 56.8289 350.946 56.9883 351.605 56.9883C352.115 56.9883 352.55 56.9352 352.912 56.8289C353.294 56.7014 353.634 56.5208 353.932 56.287L354.506 59.6342C353.974 60.0168 353.305 60.3143 352.497 60.5269C351.69 60.7394 350.861 60.8456 350.011 60.8456C348.799 60.8456 347.747 60.6756 346.855 60.3356C345.983 59.9955 345.303 59.4536 344.815 58.7098C344.347 57.9659 344.103 56.9777 344.081 55.745V41.017L349.501 39.5187ZM354.251 44.5875V48.4448H341.34V44.5875H354.251ZM364.341 44.2687C366.02 44.2687 367.486 44.5981 368.74 45.2569C370.015 45.8945 371.004 46.8402 371.705 48.0941C372.428 49.3268 372.789 50.8145 372.789 52.5572C372.789 54.2999 372.428 55.7982 371.705 57.0521C371.004 58.2847 370.015 59.2305 368.74 59.8893C367.486 60.5269 366.02 60.8456 364.341 60.8456C362.705 60.8456 361.249 60.5269 359.974 59.8893C358.698 59.2305 357.7 58.2847 356.977 57.0521C356.276 55.7982 355.925 54.2999 355.925 52.5572C355.925 50.8145 356.276 49.3268 356.977 48.0941C357.7 46.8402 358.698 45.8945 359.974 45.2569C361.249 44.5981 362.705 44.2687 364.341 44.2687ZM364.341 48.126C363.725 48.126 363.193 48.2748 362.747 48.5723C362.301 48.8698 361.961 49.348 361.727 50.0069C361.493 50.6657 361.376 51.5158 361.376 52.5572C361.376 53.5985 361.493 54.4486 361.727 55.1075C361.961 55.745 362.301 56.2232 362.747 56.542C363.193 56.8395 363.725 56.9883 364.341 56.9883C364.979 56.9883 365.521 56.8395 365.967 56.542C366.413 56.2232 366.753 55.745 366.987 55.1075C367.221 54.4486 367.338 53.5985 367.338 52.5572C367.338 51.5158 367.221 50.6657 366.987 50.0069C366.753 49.348 366.413 48.8698 365.967 48.5723C365.521 48.2748 364.979 48.126 364.341 48.126Z" fill="white"/>
</g>
<path d="M466.15 63.45V37.339H476.504C478.269 37.339 479.713 37.6956 480.838 38.4089C481.974 39.11 482.814 40.0106 483.358 41.1106C483.914 42.2107 484.192 43.347 484.192 44.5195C484.192 45.9581 483.848 47.179 483.158 48.1823C482.482 49.1857 481.557 49.8626 480.384 50.2132V49.3065C482.028 49.6813 483.273 50.461 484.12 51.6456C484.978 52.8303 485.407 54.1782 485.407 55.6892C485.407 57.2365 485.111 58.5904 484.518 59.7509C483.926 60.9114 483.044 61.818 481.871 62.4708C480.711 63.1236 479.272 63.45 477.556 63.45H466.15ZM470.574 59.3339H477.012C477.773 59.3339 478.456 59.1828 479.061 58.8805C479.665 58.5662 480.136 58.1311 480.475 57.575C480.825 57.0068 481.001 56.3359 481.001 55.5623C481.001 54.8612 480.85 54.2326 480.547 53.6765C480.245 53.1204 479.804 52.6792 479.224 52.3528C478.643 52.0143 477.948 51.8451 477.138 51.8451H470.574V59.3339ZM470.574 47.7653H476.449C477.078 47.7653 477.64 47.6444 478.136 47.4026C478.631 47.1609 479.024 46.8042 479.314 46.3328C479.605 45.8614 479.75 45.2811 479.75 44.5921C479.75 43.6854 479.459 42.9299 478.879 42.3255C478.299 41.7211 477.489 41.4189 476.449 41.4189H470.574V47.7653ZM497.678 63.9939C495.719 63.9939 494.009 63.5527 492.546 62.6703C491.083 61.7878 489.947 60.5729 489.137 59.0256C488.339 57.4662 487.94 55.6771 487.94 53.6584C487.94 51.6033 488.351 49.8022 489.173 48.2549C489.995 46.7075 491.138 45.4987 492.6 44.6283C494.063 43.758 495.756 43.3228 497.678 43.3228C499.648 43.3228 501.365 43.764 502.827 44.6465C504.29 45.5289 505.426 46.7498 506.236 48.3092C507.046 49.8566 507.451 51.6396 507.451 53.6584C507.451 55.6892 507.04 57.4843 506.218 59.0437C505.408 60.591 504.272 61.8059 502.809 62.6884C501.346 63.5587 499.636 63.9939 497.678 63.9939ZM497.678 59.896C499.418 59.896 500.712 59.3157 501.558 58.1552C502.404 56.9948 502.827 55.4958 502.827 53.6584C502.827 51.7605 502.398 50.2494 501.54 49.1252C500.682 47.9889 499.394 47.4208 497.678 47.4208C496.505 47.4208 495.538 47.6867 494.776 48.2186C494.027 48.7384 493.471 49.4697 493.108 50.4126C492.746 51.3434 492.564 52.4253 492.564 53.6584C492.564 55.5562 492.993 57.0733 493.852 58.2096C494.722 59.3339 495.997 59.896 497.678 59.896ZM511.809 63.45V36.7951H516.179V63.45H511.809ZM529.462 63.9939C527.661 63.9939 526.089 63.5406 524.747 62.634C523.405 61.7274 522.366 60.4943 521.628 58.9349C520.891 57.3755 520.522 55.6167 520.522 53.6584C520.522 51.6759 520.891 49.911 521.628 48.3636C522.378 46.8042 523.436 45.5773 524.802 44.6827C526.168 43.7761 527.775 43.3228 529.625 43.3228C531.487 43.3228 533.046 43.7761 534.303 44.6827C535.572 45.5773 536.533 46.8042 537.186 48.3636C537.839 49.923 538.165 51.688 538.165 53.6584C538.165 55.6046 537.839 57.3634 537.186 58.9349C536.533 60.4943 535.56 61.7274 534.267 62.634C532.973 63.5406 531.372 63.9939 529.462 63.9939ZM530.133 60.0773C531.305 60.0773 532.248 59.8113 532.961 59.2795C533.687 58.7355 534.212 57.98 534.539 57.0129C534.877 56.0458 535.047 54.9276 535.047 53.6584C535.047 52.377 534.877 51.2588 534.539 50.3038C534.212 49.3368 533.699 48.5873 532.998 48.0554C532.296 47.5114 531.39 47.2394 530.278 47.2394C529.105 47.2394 528.138 47.5295 527.376 48.1098C526.615 48.6779 526.053 49.4516 525.69 50.4308C525.327 51.3978 525.146 52.4737 525.146 53.6584C525.146 54.8551 525.321 55.9431 525.672 56.9222C526.035 57.8893 526.585 58.6569 527.322 59.2251C528.059 59.7932 528.996 60.0773 530.133 60.0773ZM535.047 63.45V49.7055H534.503V37.339H538.909V63.45H535.047ZM552.642 63.9939C550.684 63.9939 548.973 63.5527 547.51 62.6703C546.048 61.7878 544.911 60.5729 544.102 59.0256C543.304 57.4662 542.905 55.6771 542.905 53.6584C542.905 51.6033 543.316 49.8022 544.138 48.2549C544.96 46.7075 546.102 45.4987 547.565 44.6283C549.028 43.758 550.72 43.3228 552.642 43.3228C554.612 43.3228 556.329 43.764 557.792 44.6465C559.254 45.5289 560.391 46.7498 561.201 48.3092C562.01 49.8566 562.415 51.6396 562.415 53.6584C562.415 55.6892 562.004 57.4843 561.182 59.0437C560.372 60.591 559.236 61.8059 557.773 62.6884C556.311 63.5587 554.6 63.9939 552.642 63.9939ZM552.642 59.896C554.383 59.896 555.676 59.3157 556.522 58.1552C557.369 56.9948 557.792 55.4958 557.792 53.6584C557.792 51.7605 557.362 50.2494 556.504 49.1252C555.646 47.9889 554.359 47.4208 552.642 47.4208C551.469 47.4208 550.502 47.6867 549.741 48.2186C548.991 48.7384 548.435 49.4697 548.073 50.4126C547.71 51.3434 547.529 52.4253 547.529 53.6584C547.529 55.5562 547.958 57.0733 548.816 58.2096C549.686 59.3339 550.962 59.896 552.642 59.896Z" fill="white"/>
<path d="M430.382 49.45H444.7C449.583 49.45 453.542 53.4087 453.542 58.2921C453.542 63.1754 449.583 67.1342 444.7 67.1342H430.382V49.45Z" fill="white"/>
<path d="M430.382 33.9763H439.862C443.524 33.9763 446.493 36.9454 446.493 40.6079C446.493 44.2704 443.524 47.2395 439.862 47.2395H430.382V33.9763Z" fill="white"/>
<g clip-path="url(#clip3_0_535)">
<g clip-path="url(#clip4_0_535)">
<path d="M641.082 35.6927C641.045 35.6206 641.022 35.5418 641.015 35.4608C641.008 35.3799 641.017 35.2983 641.042 35.2209C641.066 35.1434 641.106 35.0716 641.158 35.0095C641.211 34.9473 641.275 34.8961 641.347 34.8588C643.561 33.7328 646.021 33.1755 648.504 33.2373C650.988 33.2991 653.417 33.9779 655.572 35.2125C655.643 35.2532 655.705 35.3074 655.754 35.3722C655.804 35.4369 655.84 35.5108 655.861 35.5896C655.882 35.6685 655.887 35.7506 655.876 35.8315C655.865 35.9123 655.838 35.9901 655.797 36.0605L648.676 48.2818C648.622 48.3754 648.544 48.453 648.45 48.5069C648.356 48.5608 648.25 48.5891 648.141 48.589H648.126C648.015 48.586 647.907 48.5534 647.813 48.4946C647.719 48.4358 647.642 48.3529 647.591 48.2545L641.082 35.6927ZM647.759 51.8483V51.8471L641.25 39.2853C641.175 39.1399 641.045 39.0302 640.889 38.9804C640.732 38.9305 640.563 38.9444 640.417 39.0191C638.682 39.9086 637.14 41.132 635.879 42.6189C634.619 44.1059 633.664 45.8272 633.07 47.6841C632.476 49.541 632.255 51.4969 632.419 53.4395C632.583 55.3821 633.129 57.2732 634.026 59.0043C634.922 60.7353 636.152 62.2722 637.644 63.5268C639.136 64.7814 640.862 65.729 642.721 66.3151C644.58 66.9012 646.537 67.1143 648.479 66.9423C650.421 66.7702 652.31 66.2164 654.037 65.3125C654.182 65.2365 654.291 65.1062 654.341 64.9501C654.39 64.7939 654.376 64.6246 654.301 64.479L647.759 51.8483ZM655.39 63.7218L655.439 63.8209C655.514 63.967 655.643 64.0781 655.798 64.1306C655.862 64.1517 655.929 64.1601 655.996 64.1553C656.094 64.1526 656.191 64.1316 656.281 64.0934C656.507 63.9817 656.726 63.8576 656.938 63.7218C657.568 63.3563 658.168 62.9422 658.734 62.4832H654.745L655.39 63.7218ZM654.101 61.2445H660.084C660.469 60.858 660.825 60.4441 661.149 60.0059H653.457L654.101 61.2445ZM652.826 58.7673H662.029C662.282 58.3696 662.51 57.9558 662.71 57.5286H652.181L652.826 58.7673ZM651.537 56.29H663.255C663.419 55.8856 663.56 55.472 663.676 55.0513H650.893L651.537 56.29ZM650.249 53.8127H663.986C664.06 53.4039 664.122 52.9952 664.159 52.574H649.617L650.249 53.8127ZM656.888 38.1563C656.819 38.113 656.741 38.0851 656.66 38.0745C656.578 38.0638 656.496 38.0706 656.418 38.0943C656.337 38.1127 656.262 38.1474 656.196 38.1965C656.13 38.2455 656.074 38.3077 656.034 38.3792L655.699 38.949H658.09C657.704 38.6635 657.303 38.3988 656.888 38.1563ZM659.589 40.1876H654.981L654.262 41.4263H660.765C660.399 40.9897 660.006 40.576 659.589 40.1876ZM661.694 42.6649H653.532L652.813 43.9036H662.45C662.226 43.474 661.974 43.0602 661.694 42.6649ZM663.044 45.1422H652.095L651.376 46.3808H663.527C663.39 45.9591 663.229 45.5455 663.044 45.1422ZM663.874 47.6195H650.646L649.927 48.8581H664.097C664.048 48.4411 663.974 48.0275 663.874 47.6195ZM664.221 50.0968H649.209L648.911 50.6046C648.858 50.694 648.828 50.796 648.826 50.9002C648.824 51.0045 648.849 51.1076 648.899 51.1992L648.973 51.3354H664.246C664.258 51.2115 664.258 51.0753 664.258 50.9514C664.258 50.6665 664.246 50.3817 664.221 50.0968Z" fill="white"/>
<path d="M640.798 38.4069C640.571 37.9767 640.036 37.8099 639.619 38.0607C636.32 40.046 633.854 43.1819 632.711 46.8808C631.48 50.8609 631.882 55.1668 633.826 58.8512C635.77 62.5356 639.099 65.2966 643.079 66.527C646.778 67.6704 650.758 67.4048 654.259 65.801C654.701 65.5984 654.865 65.0631 654.638 64.6329L647.718 51.5199L640.798 38.4069Z" fill="white"/>
</g>
<path d="M686.358 39.4869C688.08 39.4869 689.546 39.7631 690.758 40.3157C691.969 40.8683 692.894 41.6652 693.531 42.7066C694.169 43.748 694.488 45.0125 694.488 46.5002C694.488 47.9879 694.169 49.2524 693.531 50.2938C692.894 51.3351 691.969 52.1321 690.758 52.6847C689.546 53.2372 688.08 53.5135 686.358 53.5135H682.182V60.5269H676.699V39.4869H686.358ZM685.498 49.4012C686.645 49.4012 687.506 49.1674 688.08 48.6998C688.675 48.211 688.973 47.4778 688.973 46.5002C688.973 45.5226 688.675 44.8 688.08 44.3324C687.506 43.8436 686.645 43.5992 685.498 43.5992H682.182V49.4012H685.498ZM697.611 60.5269V44.5875H702.393L702.616 48.0304C703.019 46.8402 703.615 45.9157 704.401 45.2569C705.208 44.5981 706.229 44.2687 707.461 44.2687C707.865 44.2687 708.205 44.3006 708.481 44.3643C708.779 44.4281 709.013 44.5131 709.183 44.6193L708.641 49.0824C708.428 48.9974 708.152 48.9336 707.812 48.8911C707.493 48.8273 707.1 48.7955 706.632 48.7955C705.995 48.7955 705.4 48.9336 704.847 49.2099C704.295 49.4862 703.848 49.9006 703.508 50.4532C703.189 50.9845 703.03 51.6646 703.03 52.4934V60.5269H697.611ZM718.9 60.8456C717.136 60.8456 715.606 60.5162 714.31 59.8574C713.035 59.1986 712.046 58.2528 711.345 57.0202C710.644 55.7875 710.293 54.2999 710.293 52.5572C710.293 50.8145 710.644 49.3268 711.345 48.0941C712.046 46.8615 713.024 45.9157 714.278 45.2569C715.553 44.5981 717.009 44.2687 718.645 44.2687C720.324 44.2687 721.748 44.5981 722.917 45.2569C724.107 45.8945 725.01 46.7871 725.627 47.9347C726.243 49.0611 726.551 50.3575 726.551 51.8239C726.551 52.2065 726.541 52.589 726.519 52.9716C726.498 53.3541 726.466 53.6729 726.424 53.9279H713.8V51.027H724.033L721.451 52.0152C721.451 50.7401 721.217 49.7625 720.749 49.0824C720.303 48.4023 719.602 48.0623 718.645 48.0623C717.965 48.0623 717.381 48.2216 716.892 48.5404C716.424 48.8592 716.063 49.3587 715.808 50.0387C715.574 50.7188 715.457 51.5902 715.457 52.6528C715.457 53.6942 715.595 54.5443 715.872 55.2031C716.148 55.8407 716.541 56.3082 717.051 56.6058C717.561 56.882 718.178 57.0202 718.9 57.0202C719.708 57.0202 720.345 56.8608 720.813 56.542C721.302 56.2232 721.663 55.7769 721.897 55.2031L726.232 56.6376C725.935 57.5515 725.414 58.3272 724.67 58.9648C723.948 59.5811 723.076 60.0487 722.056 60.3675C721.057 60.6862 720.005 60.8456 718.9 60.8456ZM736.277 60.8456C734.683 60.8456 733.196 60.5906 731.814 60.0806C730.454 59.5492 729.328 58.7948 728.435 57.8172L730.986 54.8206C731.517 55.5006 732.218 56.0745 733.09 56.542C733.982 56.9883 734.97 57.2115 736.054 57.2115C736.713 57.2115 737.255 57.1158 737.68 56.9246C738.105 56.7333 738.318 56.4357 738.318 56.0319C738.318 55.7344 738.211 55.5006 737.999 55.3306C737.786 55.1393 737.361 54.9799 736.724 54.8524L734.492 54.4061C732.494 54.0023 731.071 53.4073 730.22 52.6209C729.392 51.8133 728.977 50.7613 728.977 49.4649C728.977 48.5936 729.243 47.7647 729.774 46.9784C730.305 46.1708 731.124 45.5226 732.229 45.0338C733.334 44.5237 734.747 44.2687 736.469 44.2687C738.084 44.2687 739.508 44.5025 740.74 44.97C741.973 45.4376 742.951 46.1176 743.673 47.0103L741.091 49.9431C740.581 49.3055 739.922 48.8061 739.115 48.4448C738.307 48.0835 737.499 47.9029 736.692 47.9029C736.182 47.9029 735.746 47.956 735.385 48.0623C735.045 48.1473 734.79 48.2748 734.62 48.4448C734.45 48.6148 734.365 48.8273 734.365 49.0824C734.365 49.3587 734.492 49.6031 734.747 49.8156C735.024 50.0069 735.523 50.1769 736.246 50.3256L739.147 50.8995C740.783 51.197 741.962 51.7389 742.685 52.5253C743.408 53.3116 743.769 54.2574 743.769 55.3625C743.769 56.4039 743.493 57.339 742.94 58.1678C742.388 58.9967 741.559 59.6555 740.454 60.1443C739.348 60.6119 737.956 60.8456 736.277 60.8456ZM753.243 39.5187V54.8524C753.243 55.6175 753.424 56.1701 753.785 56.5101C754.168 56.8289 754.689 56.9883 755.347 56.9883C755.857 56.9883 756.293 56.9352 756.654 56.8289C757.037 56.7014 757.377 56.5208 757.675 56.287L758.248 59.6342C757.717 60.0168 757.048 60.3143 756.24 60.5269C755.432 60.7394 754.604 60.8456 753.753 60.8456C752.542 60.8456 751.49 60.6756 750.597 60.3356C749.726 59.9955 749.046 59.4536 748.557 58.7098C748.09 57.9659 747.845 56.9777 747.824 55.745V41.017L753.243 39.5187ZM757.993 44.5875V48.4448H745.082V44.5875H757.993ZM768.084 44.2687C769.763 44.2687 771.229 44.5981 772.483 45.2569C773.758 45.8945 774.746 46.8402 775.448 48.0941C776.17 49.3268 776.532 50.8145 776.532 52.5572C776.532 54.2999 776.17 55.7982 775.448 57.0521C774.746 58.2847 773.758 59.2305 772.483 59.8893C771.229 60.5269 769.763 60.8456 768.084 60.8456C766.447 60.8456 764.991 60.5269 763.716 59.8893C762.441 59.2305 761.442 58.2847 760.72 57.0521C760.018 55.7982 759.668 54.2999 759.668 52.5572C759.668 50.8145 760.018 49.3268 760.72 48.0941C761.442 46.8402 762.441 45.8945 763.716 45.2569C764.991 44.5981 766.447 44.2687 768.084 44.2687ZM768.084 48.126C767.467 48.126 766.936 48.2748 766.49 48.5723C766.043 48.8698 765.703 49.348 765.47 50.0069C765.236 50.6657 765.119 51.5158 765.119 52.5572C765.119 53.5985 765.236 54.4486 765.47 55.1075C765.703 55.745 766.043 56.2232 766.49 56.542C766.936 56.8395 767.467 56.9883 768.084 56.9883C768.721 56.9883 769.263 56.8395 769.71 56.542C770.156 56.2232 770.496 55.745 770.73 55.1075C770.963 54.4486 771.08 53.5985 771.08 52.5572C771.08 51.5158 770.963 50.6657 770.73 50.0069C770.496 49.348 770.156 48.8698 769.71 48.5723C769.263 48.2748 768.721 48.126 768.084 48.126Z" fill="white"/>
</g>
<path d="M869.532 63.45V37.339H879.886C881.651 37.339 883.096 37.6956 884.22 38.4089C885.356 39.11 886.196 40.0106 886.74 41.1106C887.296 42.2107 887.574 43.347 887.574 44.5195C887.574 45.9581 887.23 47.179 886.541 48.1823C885.864 49.1857 884.939 49.8626 883.767 50.2132V49.3065C885.411 49.6813 886.656 50.461 887.502 51.6456C888.36 52.8303 888.789 54.1782 888.789 55.6892C888.789 57.2365 888.493 58.5904 887.901 59.7509C887.308 60.9114 886.426 61.818 885.253 62.4708C884.093 63.1236 882.654 63.45 880.938 63.45H869.532ZM873.957 59.3339H880.394C881.155 59.3339 881.838 59.1828 882.443 58.8805C883.047 58.5662 883.519 58.1311 883.857 57.575C884.208 57.0068 884.383 56.3359 884.383 55.5623C884.383 54.8612 884.232 54.2326 883.93 53.6765C883.628 53.1204 883.186 52.6792 882.606 52.3528C882.026 52.0143 881.331 51.8451 880.521 51.8451H873.957V59.3339ZM873.957 47.7653H879.832C880.46 47.7653 881.022 47.6444 881.518 47.4026C882.014 47.1609 882.407 46.8042 882.697 46.3328C882.987 45.8614 883.132 45.2811 883.132 44.5921C883.132 43.6854 882.842 42.9299 882.262 42.3255C881.681 41.7211 880.871 41.4189 879.832 41.4189H873.957V47.7653ZM901.06 63.9939C899.102 63.9939 897.391 63.5527 895.928 62.6703C894.466 61.7878 893.329 60.5729 892.519 59.0256C891.722 57.4662 891.323 55.6771 891.323 53.6584C891.323 51.6033 891.734 49.8022 892.556 48.2549C893.378 46.7075 894.52 45.4987 895.983 44.6283C897.445 43.758 899.138 43.3228 901.06 43.3228C903.03 43.3228 904.747 43.764 906.21 44.6465C907.672 45.5289 908.809 46.7498 909.618 48.3092C910.428 49.8566 910.833 51.6396 910.833 53.6584C910.833 55.6892 910.422 57.4843 909.6 59.0437C908.79 60.591 907.654 61.8059 906.191 62.6884C904.729 63.5587 903.018 63.9939 901.06 63.9939ZM901.06 59.896C902.801 59.896 904.094 59.3157 904.94 58.1552C905.786 56.9948 906.21 55.4958 906.21 53.6584C906.21 51.7605 905.78 50.2494 904.922 49.1252C904.064 47.9889 902.776 47.4208 901.06 47.4208C899.887 47.4208 898.92 47.6867 898.159 48.2186C897.409 48.7384 896.853 49.4697 896.49 50.4126C896.128 51.3434 895.947 52.4253 895.947 53.6584C895.947 55.5562 896.376 57.0733 897.234 58.2096C898.104 59.3339 899.38 59.896 901.06 59.896ZM915.191 63.45V36.7951H919.561V63.45H915.191ZM932.844 63.9939C931.043 63.9939 929.471 63.5406 928.13 62.634C926.788 61.7274 925.748 60.4943 925.011 58.9349C924.273 57.3755 923.905 55.6167 923.905 53.6584C923.905 51.6759 924.273 49.911 925.011 48.3636C925.76 46.8042 926.818 45.5773 928.184 44.6827C929.55 43.7761 931.158 43.3228 933.007 43.3228C934.869 43.3228 936.428 43.7761 937.685 44.6827C938.955 45.5773 939.916 46.8042 940.569 48.3636C941.221 49.923 941.548 51.688 941.548 53.6584C941.548 55.6046 941.221 57.3634 940.569 58.9349C939.916 60.4943 938.943 61.7274 937.649 62.634C936.356 63.5406 934.754 63.9939 932.844 63.9939ZM933.515 60.0773C934.688 60.0773 935.63 59.8113 936.344 59.2795C937.069 58.7355 937.595 57.98 937.921 57.0129C938.26 56.0458 938.429 54.9276 938.429 53.6584C938.429 52.377 938.26 51.2588 937.921 50.3038C937.595 49.3368 937.081 48.5873 936.38 48.0554C935.679 47.5114 934.772 47.2394 933.66 47.2394C932.487 47.2394 931.52 47.5295 930.759 48.1098C929.997 48.6779 929.435 49.4516 929.072 50.4308C928.71 51.3978 928.528 52.4737 928.528 53.6584C928.528 54.8551 928.704 55.9431 929.054 56.9222C929.417 57.8893 929.967 58.6569 930.704 59.2251C931.442 59.7932 932.379 60.0773 933.515 60.0773ZM938.429 63.45V49.7055H937.885V37.339H942.291V63.45H938.429ZM956.024 63.9939C954.066 63.9939 952.355 63.5527 950.893 62.6703C949.43 61.7878 948.294 60.5729 947.484 59.0256C946.686 57.4662 946.287 55.6771 946.287 53.6584C946.287 51.6033 946.698 49.8022 947.52 48.2549C948.342 46.7075 949.484 45.4987 950.947 44.6283C952.41 43.758 954.102 43.3228 956.024 43.3228C957.995 43.3228 959.711 43.764 961.174 44.6465C962.637 45.5289 963.773 46.7498 964.583 48.3092C965.393 49.8566 965.798 51.6396 965.798 53.6584C965.798 55.6892 965.387 57.4843 964.565 59.0437C963.755 60.591 962.618 61.8059 961.156 62.6884C959.693 63.5587 957.983 63.9939 956.024 63.9939ZM956.024 59.896C957.765 59.896 959.058 59.3157 959.905 58.1552C960.751 56.9948 961.174 55.4958 961.174 53.6584C961.174 51.7605 960.745 50.2494 959.887 49.1252C959.028 47.9889 957.741 47.4208 956.024 47.4208C954.852 47.4208 953.885 47.6867 953.123 48.2186C952.374 48.7384 951.818 49.4697 951.455 50.4126C951.092 51.3434 950.911 52.4253 950.911 53.6584C950.911 55.5562 951.34 57.0733 952.198 58.2096C953.069 59.3339 954.344 59.896 956.024 59.896Z" fill="white"/>
<path d="M833.765 49.45H848.082C852.966 49.45 856.924 53.4087 856.924 58.2921C856.924 63.1754 852.966 67.1342 848.082 67.1342H833.765V49.45Z" fill="white"/>
<path d="M833.765 33.9763H843.244C846.907 33.9763 849.876 36.9454 849.876 40.6079C849.876 44.2704 846.907 47.2395 843.244 47.2395H833.765V33.9763Z" fill="white"/>
<g clip-path="url(#clip5_0_535)">
<g clip-path="url(#clip6_0_535)">
<path d="M1044.83 35.6927C1044.79 35.6206 1044.76 35.5418 1044.76 35.4608C1044.75 35.3799 1044.76 35.2983 1044.78 35.2209C1044.81 35.1434 1044.85 35.0716 1044.9 35.0095C1044.95 34.9473 1045.02 34.8961 1045.09 34.8588C1047.3 33.7328 1049.76 33.1755 1052.25 33.2373C1054.73 33.2991 1057.16 33.9779 1059.32 35.2125C1059.39 35.2532 1059.45 35.3074 1059.5 35.3722C1059.55 35.4369 1059.58 35.5108 1059.6 35.5896C1059.63 35.6685 1059.63 35.7506 1059.62 35.8315C1059.61 35.9123 1059.58 35.9901 1059.54 36.0605L1052.42 48.2818C1052.36 48.3754 1052.29 48.453 1052.19 48.5069C1052.1 48.5608 1051.99 48.5891 1051.88 48.589H1051.87C1051.76 48.586 1051.65 48.5534 1051.56 48.4946C1051.46 48.4358 1051.39 48.3529 1051.33 48.2545L1044.83 35.6927ZM1051.5 51.8483V51.8471L1044.99 39.2853C1044.92 39.1399 1044.79 39.0302 1044.63 38.9804C1044.48 38.9305 1044.31 38.9444 1044.16 39.0191C1042.43 39.9086 1040.88 41.132 1039.62 42.6189C1038.36 44.1059 1037.41 45.8272 1036.81 47.6841C1036.22 49.541 1036 51.4969 1036.16 53.4395C1036.33 55.3821 1036.87 57.2732 1037.77 59.0043C1038.67 60.7353 1039.89 62.2722 1041.39 63.5268C1042.88 64.7814 1044.6 65.729 1046.46 66.3151C1048.32 66.9012 1050.28 67.1143 1052.22 66.9423C1054.16 66.7702 1056.05 66.2164 1057.78 65.3125C1057.93 65.2365 1058.03 65.1062 1058.08 64.9501C1058.13 64.7939 1058.12 64.6246 1058.04 64.479L1051.5 51.8483ZM1059.13 63.7218L1059.18 63.8209C1059.26 63.967 1059.39 64.0781 1059.54 64.1306C1059.6 64.1517 1059.67 64.1601 1059.74 64.1553C1059.84 64.1526 1059.93 64.1316 1060.02 64.0934C1060.25 63.9817 1060.47 63.8576 1060.68 63.7218C1061.31 63.3563 1061.91 62.9422 1062.48 62.4832H1058.49L1059.13 63.7218ZM1057.84 61.2445H1063.83C1064.21 60.858 1064.57 60.4441 1064.89 60.0059H1057.2L1057.84 61.2445ZM1056.57 58.7673H1065.77C1066.03 58.3696 1066.25 57.9558 1066.45 57.5286H1055.92L1056.57 58.7673ZM1055.28 56.29H1067C1067.16 55.8856 1067.3 55.472 1067.42 55.0513H1054.64L1055.28 56.29ZM1053.99 53.8127H1067.73C1067.8 53.4039 1067.86 52.9952 1067.9 52.574H1053.36L1053.99 53.8127ZM1060.63 38.1563C1060.56 38.113 1060.48 38.0851 1060.4 38.0745C1060.32 38.0638 1060.24 38.0706 1060.16 38.0943C1060.08 38.1127 1060 38.1474 1059.94 38.1965C1059.87 38.2455 1059.82 38.3077 1059.78 38.3792L1059.44 38.949H1061.83C1061.45 38.6635 1061.05 38.3988 1060.63 38.1563ZM1063.33 40.1876H1058.72L1058.01 41.4263H1064.51C1064.14 40.9897 1063.75 40.576 1063.33 40.1876ZM1065.44 42.6649H1057.27L1056.56 43.9036H1066.19C1065.97 43.474 1065.72 43.0602 1065.44 42.6649ZM1066.79 45.1422H1055.84L1055.12 46.3808H1067.27C1067.13 45.9591 1066.97 45.5455 1066.79 45.1422ZM1067.62 47.6195H1054.39L1053.67 48.8581H1067.84C1067.79 48.4411 1067.72 48.0275 1067.62 47.6195ZM1067.96 50.0968H1052.95L1052.65 50.6046C1052.6 50.694 1052.57 50.796 1052.57 50.9002C1052.57 51.0045 1052.59 51.1076 1052.64 51.1992L1052.72 51.3354H1067.99C1068 51.2115 1068 51.0753 1068 50.9514C1068 50.6665 1067.99 50.3817 1067.96 50.0968Z" fill="white"/>
<path d="M1044.54 38.4069C1044.31 37.9767 1043.78 37.8099 1043.36 38.0607C1040.06 40.046 1037.6 43.1819 1036.45 46.8808C1035.22 50.8609 1035.62 55.1668 1037.57 58.8512C1039.51 62.5356 1042.84 65.2966 1046.82 66.527C1050.52 67.6704 1054.5 67.4048 1058 65.801C1058.44 65.5984 1058.61 65.0631 1058.38 64.6329L1051.46 51.5199L1044.54 38.4069Z" fill="white"/>
</g>
<path d="M1090.1 39.4869C1091.82 39.4869 1093.29 39.7631 1094.5 40.3157C1095.71 40.8683 1096.64 41.6652 1097.27 42.7066C1097.91 43.748 1098.23 45.0125 1098.23 46.5002C1098.23 47.9879 1097.91 49.2524 1097.27 50.2938C1096.64 51.3351 1095.71 52.1321 1094.5 52.6847C1093.29 53.2372 1091.82 53.5135 1090.1 53.5135H1085.93V60.5269H1080.44V39.4869H1090.1ZM1089.24 49.4012C1090.39 49.4012 1091.25 49.1674 1091.82 48.6998C1092.42 48.211 1092.72 47.4778 1092.72 46.5002C1092.72 45.5226 1092.42 44.8 1091.82 44.3324C1091.25 43.8436 1090.39 43.5992 1089.24 43.5992H1085.93V49.4012H1089.24ZM1101.35 60.5269V44.5875H1106.14L1106.36 48.0304C1106.76 46.8402 1107.36 45.9157 1108.14 45.2569C1108.95 44.5981 1109.97 44.2687 1111.2 44.2687C1111.61 44.2687 1111.95 44.3006 1112.22 44.3643C1112.52 44.4281 1112.76 44.5131 1112.93 44.6193L1112.38 49.0824C1112.17 48.9974 1111.89 48.9336 1111.55 48.8911C1111.24 48.8273 1110.84 48.7955 1110.38 48.7955C1109.74 48.7955 1109.14 48.9336 1108.59 49.2099C1108.04 49.4862 1107.59 49.9006 1107.25 50.4532C1106.93 50.9845 1106.77 51.6646 1106.77 52.4934V60.5269H1101.35ZM1122.64 60.8456C1120.88 60.8456 1119.35 60.5162 1118.05 59.8574C1116.78 59.1986 1115.79 58.2528 1115.09 57.0202C1114.39 55.7875 1114.04 54.2999 1114.04 52.5572C1114.04 50.8145 1114.39 49.3268 1115.09 48.0941C1115.79 46.8615 1116.77 45.9157 1118.02 45.2569C1119.3 44.5981 1120.75 44.2687 1122.39 44.2687C1124.07 44.2687 1125.49 44.5981 1126.66 45.2569C1127.85 45.8945 1128.75 46.7871 1129.37 47.9347C1129.99 49.0611 1130.29 50.3575 1130.29 51.8239C1130.29 52.2065 1130.28 52.589 1130.26 52.9716C1130.24 53.3541 1130.21 53.6729 1130.17 53.9279H1117.54V51.027H1127.78L1125.19 52.0152C1125.19 50.7401 1124.96 49.7625 1124.49 49.0824C1124.05 48.4023 1123.34 48.0623 1122.39 48.0623C1121.71 48.0623 1121.12 48.2216 1120.63 48.5404C1120.17 48.8592 1119.81 49.3587 1119.55 50.0387C1119.32 50.7188 1119.2 51.5902 1119.2 52.6528C1119.2 53.6942 1119.34 54.5443 1119.61 55.2031C1119.89 55.8407 1120.28 56.3082 1120.79 56.6058C1121.3 56.882 1121.92 57.0202 1122.64 57.0202C1123.45 57.0202 1124.09 56.8608 1124.56 56.542C1125.04 56.2232 1125.41 55.7769 1125.64 55.2031L1129.98 56.6376C1129.68 57.5515 1129.16 58.3272 1128.41 58.9648C1127.69 59.5811 1126.82 60.0487 1125.8 60.3675C1124.8 60.6862 1123.75 60.8456 1122.64 60.8456ZM1140.02 60.8456C1138.43 60.8456 1136.94 60.5906 1135.56 60.0806C1134.2 59.5492 1133.07 58.7948 1132.18 57.8172L1134.73 54.8206C1135.26 55.5006 1135.96 56.0745 1136.83 56.542C1137.73 56.9883 1138.71 57.2115 1139.8 57.2115C1140.46 57.2115 1141 57.1158 1141.42 56.9246C1141.85 56.7333 1142.06 56.4357 1142.06 56.0319C1142.06 55.7344 1141.95 55.5006 1141.74 55.3306C1141.53 55.1393 1141.1 54.9799 1140.47 54.8524L1138.24 54.4061C1136.24 54.0023 1134.81 53.4073 1133.96 52.6209C1133.13 51.8133 1132.72 50.7613 1132.72 49.4649C1132.72 48.5936 1132.99 47.7647 1133.52 46.9784C1134.05 46.1708 1134.87 45.5226 1135.97 45.0338C1137.08 44.5237 1138.49 44.2687 1140.21 44.2687C1141.83 44.2687 1143.25 44.5025 1144.48 44.97C1145.72 45.4376 1146.69 46.1176 1147.42 47.0103L1144.83 49.9431C1144.32 49.3055 1143.67 48.8061 1142.86 48.4448C1142.05 48.0835 1141.24 47.9029 1140.43 47.9029C1139.92 47.9029 1139.49 47.956 1139.13 48.0623C1138.79 48.1473 1138.53 48.2748 1138.36 48.4448C1138.19 48.6148 1138.11 48.8273 1138.11 49.0824C1138.11 49.3587 1138.24 49.6031 1138.49 49.8156C1138.77 50.0069 1139.27 50.1769 1139.99 50.3256L1142.89 50.8995C1144.53 51.197 1145.71 51.7389 1146.43 52.5253C1147.15 53.3116 1147.51 54.2574 1147.51 55.3625C1147.51 56.4039 1147.24 57.339 1146.68 58.1678C1146.13 58.9967 1145.3 59.6555 1144.2 60.1443C1143.09 60.6119 1141.7 60.8456 1140.02 60.8456ZM1156.99 39.5187V54.8524C1156.99 55.6175 1157.17 56.1701 1157.53 56.5101C1157.91 56.8289 1158.43 56.9883 1159.09 56.9883C1159.6 56.9883 1160.04 56.9352 1160.4 56.8289C1160.78 56.7014 1161.12 56.5208 1161.42 56.287L1161.99 59.6342C1161.46 60.0168 1160.79 60.3143 1159.98 60.5269C1159.18 60.7394 1158.35 60.8456 1157.5 60.8456C1156.28 60.8456 1155.23 60.6756 1154.34 60.3356C1153.47 59.9955 1152.79 59.4536 1152.3 58.7098C1151.83 57.9659 1151.59 56.9777 1151.57 55.745V41.017L1156.99 39.5187ZM1161.74 44.5875V48.4448H1148.83V44.5875H1161.74ZM1171.83 44.2687C1173.51 44.2687 1174.97 44.5981 1176.23 45.2569C1177.5 45.8945 1178.49 46.8402 1179.19 48.0941C1179.91 49.3268 1180.27 50.8145 1180.27 52.5572C1180.27 54.2999 1179.91 55.7982 1179.19 57.0521C1178.49 58.2847 1177.5 59.2305 1176.23 59.8893C1174.97 60.5269 1173.51 60.8456 1171.83 60.8456C1170.19 60.8456 1168.73 60.5269 1167.46 59.8893C1166.18 59.2305 1165.19 58.2847 1164.46 57.0521C1163.76 55.7982 1163.41 54.2999 1163.41 52.5572C1163.41 50.8145 1163.76 49.3268 1164.46 48.0941C1165.19 46.8402 1166.18 45.8945 1167.46 45.2569C1168.73 44.5981 1170.19 44.2687 1171.83 44.2687ZM1171.83 48.126C1171.21 48.126 1170.68 48.2748 1170.23 48.5723C1169.79 48.8698 1169.45 49.348 1169.21 50.0069C1168.98 50.6657 1168.86 51.5158 1168.86 52.5572C1168.86 53.5985 1168.98 54.4486 1169.21 55.1075C1169.45 55.745 1169.79 56.2232 1170.23 56.542C1170.68 56.8395 1171.21 56.9883 1171.83 56.9883C1172.46 56.9883 1173.01 56.8395 1173.45 56.542C1173.9 56.2232 1174.24 55.745 1174.47 55.1075C1174.71 54.4486 1174.82 53.5985 1174.82 52.5572C1174.82 51.5158 1174.71 50.6657 1174.47 50.0069C1174.24 49.348 1173.9 48.8698 1173.45 48.5723C1173.01 48.2748 1172.46 48.126 1171.83 48.126Z" fill="white"/>
</g>
</g>
<rect width="1173" height="93" fill="url(#paint0_linear_0_535)"/>
<defs>
<linearGradient id="paint0_linear_0_535" x1="0" y1="93" x2="1148" y2="92.9998" gradientUnits="userSpaceOnUse">
<stop stop-color="#0A2640"/>
<stop offset="0.322917" stop-color="#0A2640" stop-opacity="0.109375"/>
<stop offset="0.744792" stop-color="#0A2640" stop-opacity="0"/>
<stop offset="1" stop-color="#0A2640"/>
</linearGradient>
<clipPath id="clip0_0_535">
<rect width="1120" height="48" fill="white" transform="translate(27 33)"/>
</clipPath>
<clipPath id="clip1_0_535">
<rect width="146.513" height="41.2903" fill="white" transform="translate(228.18 28.5269)"/>
</clipPath>
<clipPath id="clip2_0_535">
<rect width="32.745" height="34.8351" fill="white" transform="translate(227.989 32.6807)"/>
</clipPath>
<clipPath id="clip3_0_535">
<rect width="146.513" height="41.2903" fill="white" transform="translate(631.922 28.5269)"/>
</clipPath>
<clipPath id="clip4_0_535">
<rect width="32.745" height="34.8351" fill="white" transform="translate(631.731 32.6807)"/>
</clipPath>
<clipPath id="clip5_0_535">
<rect width="146.513" height="41.2903" fill="white" transform="translate(1035.67 28.5269)"/>
</clipPath>
<clipPath id="clip6_0_535">
<rect width="32.745" height="34.8351" fill="white" transform="translate(1035.47 32.6807)"/>
</clipPath>
</defs>
</svg>
